{
  "asset": {
    "version": "2.0",
    "generator": "POC-3DT-01 repository-local factory fixture"
  },
  "scene": 0,
  "scenes": [{ "nodes": [0, 1, 2, 3, 4, 5, 6, 7] }],
  "nodes": [
    { "name": "poc-factory-floor", "mesh": 1, "translation": [0, 0, -0.1], "scale": [6.5, 7.5, 0.2] },
    { "name": "poc-factory-left-wall", "mesh": 0, "translation": [-3.125, 0, 13], "scale": [0.25, 7.5, 26] },
    { "name": "poc-factory-right-wall", "mesh": 0, "translation": [3.125, 0, 13], "scale": [0.25, 7.5, 26] },
    { "name": "poc-factory-back-wall", "mesh": 0, "translation": [0, 3.625, 13], "scale": [6.5, 0.25, 26] },
    { "name": "poc-factory-front-left-pier", "mesh": 0, "translation": [-2.5, -3.625, 13], "scale": [1.5, 0.25, 26] },
    { "name": "poc-factory-front-right-pier", "mesh": 0, "translation": [2.5, -3.625, 13], "scale": [1.5, 0.25, 26] },
    { "name": "poc-factory-front-lintel", "mesh": 0, "translation": [0, -3.625, 25], "scale": [6.5, 0.25, 2] },
    { "name": "poc-factory-roof", "mesh": 0, "translation": [0, 0, 26.125], "scale": [6.5, 7.5, 0.25] }
  ],
  "meshes": [
    { "name": "poc-factory-structure-mesh", "primitives": [{ "attributes": { "POSITION": 0 }, "indices": 1, "material": 0, "mode": 4 }] },
    { "name": "poc-factory-floor-mesh", "primitives": [{ "attributes": { "POSITION": 0 }, "indices": 1, "material": 1, "mode": 4 }] }
  ],
  "materials": [
    {
      "name": "poc-factory-structure",
      "doubleSided": false,
      "pbrMetallicRoughness": {
        "baseColorFactor": [0.1, 0.18, 0.25, 1],
        "metallicFactor": 0.15,
        "roughnessFactor": 0.72
      }
    },
    {
      "name": "poc-factory-floor",
      "doubleSided": false,
      "pbrMetallicRoughness": {
        "baseColorFactor": [0.38, 0.41, 0.43, 1],
        "metallicFactor": 0,
        "roughnessFactor": 0.9
      }
    }
  ],
  "buffers": [{ "byteLength": 168, "uri": "data:application/octet-stream;base64," }],
  "bufferViews": [
    { "buffer": 0, "byteOffset": 0, "byteLength": 96, "target": 34962 },
    { "buffer": 0, "byteOffset": 96, "byteLength": 72, "target": 34963 }
  ],
  "accessors": [
    { "bufferView": 0, "componentType": 5126, "count": 8, "type": "VEC3", "min": [-0.5, -0.5, -0.5], "max": [0.5, 0.5, 0.5] },
    { "bufferView": 1, "componentType": 5123, "count": 36, "type": "SCALAR" }
  ]
}
